<svg xmlns="http://www.w3.org/2000/svg" width="24" height="24" viewBox="0 0 200 200">
  <path fill="#000" d="M174 100v-1a74 74 0 0 0-15-44 13 13 0 0 0-3-4 74 74 0 0 0-54-25h-4a74 74 0 0 0-54 25 13 13 0 0 0-3 4 75 75 0 0 0-15 45 74 74 0 0 0 15 45 12 12 0 0 0 2 3 74 74 0 0 0 55 26h4a74 74 0 0 0 55-26 13 13 0 0 0 2-3 75 75 0 0 0 15-45Zm-20 45c-4 3-12 6-23 9a6 6 0 0 0-6-4l-11-24a128 128 0 0 1 25 4c10 3 17 7 17 11a4 4 0 0 1-1 2l-1 2Zm-55 12c-26-1-45-6-52-12l-2-2a4 4 0 0 1-1-2c0-3 6-8 20-12a153 153 0 0 1 34-4h2l9 1 12 26a6 6 0 0 0-2 4 181 181 0 0 1-20 1Zm-2 13c-7-1-12-3-12-5s6-4 15-4 15 3 15 4-5 4-13 5h-5ZM47 54c4-3 12-6 22-8a7 7 0 0 0 6 4 6 6 0 0 0 1 0l11 24c-26-2-43-9-43-15a4 4 0 0 1 1-1l2-4Zm53-11c26 0 45 5 53 11l2 4a4 4 0 0 1 1 1c0 6-22 15-57 15h-8L80 48a7 7 0 0 0 2-4l18-1Zm-15-8c0-2 5-5 13-5h4c8 1 13 3 13 5s-6 4-15 4-15-3-15-4Zm51 47c20 4 33 11 34 18 0 9-24 19-58 21L93 79h7a196 196 0 0 1 36 3Zm-64-6-9 2c-15 3-26 7-32 13a71 71 0 0 1 10-28c3 6 16 11 31 13Zm-42 24c0-7 14-14 34-18a187 187 0 0 1 25-3l18 42h-9c-40 0-67-11-68-21Zm110 26a111 111 0 0 0-12-3 142 142 0 0 0 23-4c8-3 14-6 18-10a70 70 0 0 1-10 28c-2-4-9-8-19-11Zm29-35c-6-6-17-10-32-13l-9-2c15-2 28-7 31-13l3 4a70 70 0 0 1 7 24Zm-53-51a6 6 0 0 0 3-5 2 2 0 0 0 0-1 5 5 0 0 0-1-1 70 70 0 0 1 25 12 127 127 0 0 0-27-5Zm-49-2a70 70 0 0 1 15-5 5 5 0 0 0-1 1 2 2 0 0 0 0 1 6 6 0 0 0 3 5h-2a7 7 0 0 0-14 2 94 94 0 0 0-11 3 70 70 0 0 1 10-7Zm-36 71c4 4 9 7 17 9a136 136 0 0 0 23 5l-8 2c-12 3-19 7-22 12l-3-4a70 70 0 0 1-7-24Zm54 51c-2 1-4 3-4 5a2 2 0 0 0 0 1 5 5 0 0 0 1 1 70 70 0 0 1-25-12 127 127 0 0 0 28 5Zm48 2a70 70 0 0 1-15 5 5 5 0 0 0 1-1 2 2 0 0 0 0-1c0-2-2-4-4-5h5a6 6 0 0 0 12-2 98 98 0 0 0 11-3 70 70 0 0 1-10 7Z"/>
</svg>